<svg height="894" width="720" xmlns="http://www.w3.org/2000/svg">
<rect height="894" fill="#555" width="720"></rect>
<text fill="#7f7" font-family="Courier New" font-size="12" xml:space="preserve">
<tspan x="10" y="26"></tspan>

<tspan x="10" y="42">[MODE_BUILD=buildApp] - 2018-04-11T17:44:37.852Z - npm-testing /home/travis/build/npmtest/node-n\</tspan>
<tspan x="10" y="58">pmtest-sandbox2</tspan>

<tspan x="10" y="74"></tspan>

<tspan x="10" y="90"></tspan>

<tspan x="10" y="106">buildApp - merged test-report from file /home/travis/build/npmtest/node-npmtest-sandbox2/tmp/bui\</tspan>
<tspan x="10" y="122">ld/test-report.json</tspan>

<tspan x="10" y="138">&gt; server listening on http-port 54786</tspan>

<tspan x="10" y="154">apidocCreate - readExample /home/travis/build/npmtest/node-npmtest-sandbox2/node_modules/sandbox\</tspan>
<tspan x="10" y="170">2/package.json</tspan>

<tspan x="10" y="186">apidocCreate - readExample /home/travis/build/npmtest/node-npmtest-sandbox2/node_modules/sandbox\</tspan>
<tspan x="10" y="202">2/.gitignore</tspan>

<tspan x="10" y="218">apidocCreate - readExample /home/travis/build/npmtest/node-npmtest-sandbox2/node_modules/sandbox\</tspan>
<tspan x="10" y="234">2/lib.sandbox2.js</tspan>

<tspan x="10" y="250">apidocCreate - readExample /home/travis/build/npmtest/node-npmtest-sandbox2/node_modules/sandbox\</tspan>
<tspan x="10" y="266">2/LICENSE</tspan>

<tspan x="10" y="282">apidocCreate - readExample /home/travis/build/npmtest/node-npmtest-sandbox2/node_modules/sandbox\</tspan>
<tspan x="10" y="298">2/package.json</tspan>

<tspan x="10" y="314">apidocCreate - readExample /home/travis/build/npmtest/node-npmtest-sandbox2/node_modules/sandbox\</tspan>
<tspan x="10" y="330">2/README.md</tspan>

<tspan x="10" y="346">apidocCreate - readExample /home/travis/build/npmtest/node-npmtest-sandbox2/node_modules/sandbox\</tspan>
<tspan x="10" y="362">2/test.js</tspan>

<tspan x="10" y="378">apidocCreate - requiring /home/travis/build/npmtest/node-npmtest-sandbox2/node_modules/sandbox2 \</tspan>
<tspan x="10" y="394">...</tspan>

<tspan x="10" y="410">apidocCreate - ... required /home/travis/build/npmtest/node-npmtest-sandbox2/node_modules/sandbo\</tspan>
<tspan x="10" y="426">x2</tspan>

<tspan x="10" y="442">created customOrg file /home/travis/build/npmtest/node-npmtest-sandbox2/README.md</tspan>

<tspan x="10" y="458"></tspan>

<tspan x="10" y="474">&gt; server listening on http-port 62256</tspan>

<tspan x="10" y="490">[node test-case 1 of 1 passed] - testCase_buildApp_default</tspan>

<tspan x="10" y="506"></tspan>

<tspan x="10" y="522">buildApp - merged test-report from file /home/travis/build/npmtest/node-npmtest-sandbox2/tmp/bui\</tspan>
<tspan x="10" y="538">ld/test-report.json</tspan>

<tspan x="10" y="554"></tspan>

<tspan x="10" y="570">-------------------------------------------------------</tspan>

<tspan x="10" y="586">| test-report - buildApidoc - node - linux v6.14.1 - 2018-04-11T17:44:05.669Z</tspan>

<tspan x="10" y="602">|   38269 ms            0 failed        1 passed      |</tspan>

<tspan x="10" y="618">-------------------------------------------------------</tspan>

<tspan x="10" y="634">| test-report - buildApp - node - linux v6.14.1 - 2018-04-11T17:43:35.341Z</tspan>

<tspan x="10" y="650">|   27013 ms            0 failed        8 passed      |</tspan>

<tspan x="10" y="666">-------------------------------------------------------</tspan>

<tspan x="10" y="682">| test-report - npmTest - browser - / - Mozilla/5.0 (X11; Linux x86_64) AppleWebKit/537.36 (KHTM\</tspan>
<tspan x="10" y="698">L, like Gecko) Chrome/58.0.3029.110 Electron/1.7.13 Safari/537.36 - 2018-04-11T17:43:47.528Z</tspan>

<tspan x="10" y="714">|      57 ms            0 failed        8 passed      |</tspan>

<tspan x="10" y="730">-------------------------------------------------------</tspan>

<tspan x="10" y="746"></tspan>

<tspan x="10" y="762">created test-report file /home/travis/build/npmtest/node-npmtest-sandbox2/tmp/build/test-report.\</tspan>
<tspan x="10" y="778">html</tspan>

<tspan x="10" y="794"></tspan>

<tspan x="10" y="810"></tspan>

<tspan x="10" y="826">buildApp - 0 failed tests</tspan>

<tspan x="10" y="842"></tspan>

<tspan x="10" y="858"></tspan>

<tspan x="10" y="874">[MODE_BUILD=buildApp] - 2018-04-11T17:44:45.508Z - EXIT_CODE - 0</tspan>

</text>
</svg>
