<svg height="2462" width="720" xmlns="http://www.w3.org/2000/svg">
<rect height="2462" fill="#555" width="720"></rect>
<text fill="#7f7" font-family="Courier New" font-size="12" xml:space="preserve">
<tspan x="10" y="26"></tspan>
<tspan x="10" y="42">[MODE_BUILD=npmTest] - 2017-05-30T07:44:12.992Z - npm-testing /home/travis/build/npmtest/node-np\</tspan>
<tspan x="10" y="58">mtest-sandbox2</tspan>
<tspan x="10" y="74"></tspan>
<tspan x="10" y="90"></tspan>
<tspan x="10" y="106">covering $ /home/travis/.nvm/versions/node/v6.10.3/bin/node /home/travis/build/npmtest/node-npmt\</tspan>
<tspan x="10" y="122">est-sandbox2/test.js</tspan>
<tspan x="10" y="138"></tspan>
<tspan x="10" y="154">npmTest - merged test-report from file:///home/travis/build/npmtest/node-npmtest-sandbox2/tmp/bu\</tspan>
<tspan x="10" y="170">ild/test-report.json</tspan>
<tspan x="10" y="186">&gt; server listening on http-port 48399</tspan>
<tspan x="10" y="202">[node test-case 1 of 7 passed] - testCase_buildApidoc_default</tspan>
<tspan x="10" y="218">apidocCreate - readExample /home/travis/build/npmtest/node-npmtest-sandbox2/node_modules/sandbox\</tspan>
<tspan x="10" y="234">2/package.json</tspan>
<tspan x="10" y="250">apidocCreate - readExample /home/travis/build/npmtest/node-npmtest-sandbox2/node_modules/sandbox\</tspan>
<tspan x="10" y="266">2/lib.sandbox2.js</tspan>
<tspan x="10" y="282">apidocCreate - readExample /home/travis/build/npmtest/node-npmtest-sandbox2/node_modules/sandbox\</tspan>
<tspan x="10" y="298">2/LICENSE</tspan>
<tspan x="10" y="314">apidocCreate - readExample /home/travis/build/npmtest/node-npmtest-sandbox2/node_modules/sandbox\</tspan>
<tspan x="10" y="330">2/package.json</tspan>
<tspan x="10" y="346">apidocCreate - readExample /home/travis/build/npmtest/node-npmtest-sandbox2/node_modules/sandbox\</tspan>
<tspan x="10" y="362">2/README.md</tspan>
<tspan x="10" y="378">apidocCreate - readExample /home/travis/build/npmtest/node-npmtest-sandbox2/node_modules/sandbox\</tspan>
<tspan x="10" y="394">2/test.js</tspan>
<tspan x="10" y="410">apidocCreate - requiring /home/travis/build/npmtest/node-npmtest-sandbox2/node_modules/sandbox2 \</tspan>
<tspan x="10" y="426">...</tspan>
<tspan x="10" y="442">apidocCreate - ... required /home/travis/build/npmtest/node-npmtest-sandbox2/node_modules/sandbo\</tspan>
<tspan x="10" y="458">x2</tspan>
<tspan x="10" y="474">created customOrg file:///home/travis/build/npmtest/node-npmtest-sandbox2/README.md</tspan>
<tspan x="10" y="490"></tspan>
<tspan x="10" y="506">apidocCreate - readExample /home/travis/build/npmtest/node-npmtest-sandbox2/node_modules/sandbox\</tspan>
<tspan x="10" y="522">2/package.json</tspan>
<tspan x="10" y="538">apidocCreate - readExample /home/travis/build/npmtest/node-npmtest-sandbox2/node_modules/sandbox\</tspan>
<tspan x="10" y="554">2/lib.sandbox2.js</tspan>
<tspan x="10" y="570">apidocCreate - readExample /home/travis/build/npmtest/node-npmtest-sandbox2/node_modules/sandbox\</tspan>
<tspan x="10" y="586">2/LICENSE</tspan>
<tspan x="10" y="602">apidocCreate - readExample /home/travis/build/npmtest/node-npmtest-sandbox2/node_modules/sandbox\</tspan>
<tspan x="10" y="618">2/package.json</tspan>
<tspan x="10" y="634">apidocCreate - readExample /home/travis/build/npmtest/node-npmtest-sandbox2/node_modules/sandbox\</tspan>
<tspan x="10" y="650">2/README.md</tspan>
<tspan x="10" y="666">apidocCreate - readExample /home/travis/build/npmtest/node-npmtest-sandbox2/node_modules/sandbox\</tspan>
<tspan x="10" y="682">2/test.js</tspan>
<tspan x="10" y="698">apidocCreate - requiring /home/travis/build/npmtest/node-npmtest-sandbox2/node_modules/sandbox2 \</tspan>
<tspan x="10" y="714">...</tspan>
<tspan x="10" y="730">apidocCreate - ... required /home/travis/build/npmtest/node-npmtest-sandbox2/node_modules/sandbo\</tspan>
<tspan x="10" y="746">x2</tspan>
<tspan x="10" y="762">created customOrg file:///home/travis/build/npmtest/node-npmtest-sandbox2/README.md</tspan>
<tspan x="10" y="778"></tspan>
<tspan x="10" y="794">[node test-case 2 of 7 passed] - testCase_buildLib_default</tspan>
<tspan x="10" y="810">[node test-case 3 of 7 passed] - testCase_buildReadme_default</tspan>
<tspan x="10" y="826">[node test-case 4 of 7 passed] - testCase_buildTest_default</tspan>
<tspan x="10" y="842"></tspan>
<tspan x="10" y="858">browserTest - created electron entry-page /home/travis/build/npmtest/node-npmtest-sandbox2/tmp/e\</tspan>
<tspan x="10" y="874">lectron.15c584ff3750.7aac53d94985d.html</tspan>
<tspan x="10" y="890"></tspan>
<tspan x="10" y="906">[node test-case 5 of 7 passed] - testCase_buildCustomOrg_default</tspan>
<tspan x="10" y="922">Xlib:  extension "RANDR" missing on display ":99.0".</tspan>
<tspan x="10" y="938">&gt; server listening on http-port 49052</tspan>
<tspan x="10" y="954"></tspan>
<tspan x="10" y="970">npmTest - merged test-report from file:///home/travis/build/npmtest/node-npmtest-sandbox2/tmp/bu\</tspan>
<tspan x="10" y="986">ild/test-report.json</tspan>
<tspan x="10" y="1002">Xlib:  extension "RANDR" missing on display ":99.0".</tspan>
<tspan x="10" y="1018">[6553:0530/074414:WARNING:audio_manager.cc(314)] Multiple instances of AudioManager detected</tspan>
<tspan x="10" y="1034">[6553:0530/074414:WARNING:audio_manager.cc(275)] Multiple instances of AudioManager detected</tspan>
<tspan x="10" y="1050">[6583:0530/074414:ERROR:sandbox_linux.cc(343)] InitializeSandbox() called with multiple threads \</tspan>
<tspan x="10" y="1066">in process gpu-process. </tspan>
<tspan x="10" y="1082">[6553:0530/074414:ERROR:browser_gpu_channel_host_factory.cc(131)] Failed to create channel.</tspan>
<tspan x="10" y="1098"></tspan>
<tspan x="10" y="1114">browserTest - opened url http://127.0.0.1:48399?modeTest=1</tspan>
<tspan x="10" y="1130"></tspan>
<tspan x="10" y="1146">[6553:0530/074415:INFO:CONSOLE(259)] "[browser test-case 1 of 1 passed] - testCase_browser_nullC\</tspan>
<tspan x="10" y="1162">ase", source: file:///home/travis/build/npmtest/node-npmtest-sandbox2/tmp/electron.15c584ff3750.\</tspan>
<tspan x="10" y="1178">7aac53d94985d.html (259)</tspan>
<tspan x="10" y="1194">[6553:0530/074416:INFO:CONSOLE(259)] "----------|-----------|-----------|-----------|-----------\</tspan>
<tspan x="10" y="1210">|</tspan>
<tspan x="10" y="1226">File      |   % Stmts |% Branches |   % Funcs |   % Lines |</tspan>
<tspan x="10" y="1242">----------|-----------|-----------|-----------|-----------|</tspan>
<tspan x="10" y="1258">----------|-----------|-----------|-----------|-----------|</tspan>
<tspan x="10" y="1274">All files |       100 |       100 |       100 |       100 |</tspan>
<tspan x="10" y="1290">----------|-----------|-----------|-----------|-----------|</tspan>
<tspan x="10" y="1306">", source: file:///home/travis/build/npmtest/node-npmtest-sandbox2/tmp/electron.15c584ff3750.7aa\</tspan>
<tspan x="10" y="1322">c53d94985d.html (259)</tspan>
<tspan x="10" y="1338">[6553:0530/074416:INFO:CONSOLE(259)] "created coverage file:///tmp/build/coverage.html/index.htm\</tspan>
<tspan x="10" y="1354">l", source: file:///home/travis/build/npmtest/node-npmtest-sandbox2/tmp/electron.15c584ff3750.7a\</tspan>
<tspan x="10" y="1370">ac53d94985d.html (259)</tspan>
<tspan x="10" y="1386">[node test-case 6 of 7 passed] - testCase_buildApp_default</tspan>
<tspan x="10" y="1402"></tspan>
<tspan x="10" y="1418">browserTest - created screenshot file:///home/travis/build/npmtest/node-npmtest-sandbox2/tmp/bui\</tspan>
<tspan x="10" y="1434">ld/screenshot.npmTest.browser.%2F.png</tspan>
<tspan x="10" y="1450"></tspan>
<tspan x="10" y="1466">browserTest - created screenshot file:///home/travis/build/npmtest/node-npmtest-sandbox2/tmp/bui\</tspan>
<tspan x="10" y="1482">ld/screenshot.npmTest.browser.%2F.html</tspan>
<tspan x="10" y="1498"></tspan>
<tspan x="10" y="1514">browserTest - exit-code 0 - http://127.0.0.1:48399?modeTest=1</tspan>
<tspan x="10" y="1530"></tspan>
<tspan x="10" y="1546"></tspan>
<tspan x="10" y="1562">browserTest - merged coverage from /home/travis/build/npmtest/node-npmtest-sandbox2/tmp/coverage\</tspan>
<tspan x="10" y="1578">.npmTest.browser.%2F.json</tspan>
<tspan x="10" y="1594"></tspan>
<tspan x="10" y="1610"></tspan>
<tspan x="10" y="1626">browserTest - merged test-report from file:///home/travis/build/npmtest/node-npmtest-sandbox2/tm\</tspan>
<tspan x="10" y="1642">p/test-report.npmTest.browser.%2F.json</tspan>
<tspan x="10" y="1658"></tspan>
<tspan x="10" y="1674">[node test-case 7 of 7 passed] - testCase_webpage_default</tspan>
<tspan x="10" y="1690">------------------------------------------------|-----------|-----------|-----------|-----------\</tspan>
<tspan x="10" y="1706">|</tspan>
<tspan x="10" y="1722">File                                            |   % Stmts |% Branches |   % Funcs |   % Lines \</tspan>
<tspan x="10" y="1738">|</tspan>
<tspan x="10" y="1754">------------------------------------------------|-----------|-----------|-----------|-----------\</tspan>
<tspan x="10" y="1770">|</tspan>
<tspan x="10" y="1786">   node-npmtest-sandbox2/                       |       100 |       100 |       100 |       100 \</tspan>
<tspan x="10" y="1802">|</tspan>
<tspan x="10" y="1818">      example.js                                |       100 |       100 |       100 |       100 \</tspan>
<tspan x="10" y="1834">|</tspan>
<tspan x="10" y="1850">      lib.npmtest_sandbox2.js                   |       100 |       100 |       100 |       100 \</tspan>
<tspan x="10" y="1866">|</tspan>
<tspan x="10" y="1882">      test.js                                   |       100 |       100 |       100 |       100 \</tspan>
<tspan x="10" y="1898">|</tspan>
<tspan x="10" y="1914">   node-npmtest-sandbox2/node_modules/sandbox2/ |     93.75 |     64.29 |       100 |     93.75 \</tspan>
<tspan x="10" y="1930">|</tspan>
<tspan x="10" y="1946">      lib.sandbox2.js                           |     93.75 |     64.29 |       100 |     93.75 \</tspan>
<tspan x="10" y="1962">|</tspan>
<tspan x="10" y="1978">------------------------------------------------|-----------|-----------|-----------|-----------\</tspan>
<tspan x="10" y="1994">|</tspan>
<tspan x="10" y="2010">All files                                       |     99.43 |     96.64 |       100 |     99.43 \</tspan>
<tspan x="10" y="2026">|</tspan>
<tspan x="10" y="2042">------------------------------------------------|-----------|-----------|-----------|-----------\</tspan>
<tspan x="10" y="2058">|</tspan>
<tspan x="10" y="2074"></tspan>
<tspan x="10" y="2090">created coverage file:///home/travis/build/npmtest/node-npmtest-sandbox2/tmp/build/coverage.html\</tspan>
<tspan x="10" y="2106">/index.html</tspan>
<tspan x="10" y="2122"></tspan>
<tspan x="10" y="2138">npmTest - merged test-report from file:///home/travis/build/npmtest/node-npmtest-sandbox2/tmp/bu\</tspan>
<tspan x="10" y="2154">ild/test-report.json</tspan>
<tspan x="10" y="2170"></tspan>
<tspan x="10" y="2186">-------------------------------------------------------</tspan>
<tspan x="10" y="2202">| test-report - buildApp - node - linux v6.10.3 - 2017-05-30T07:44:03.532Z</tspan>
<tspan x="10" y="2218">|   20092 ms            0 failed        7 passed      |</tspan>
<tspan x="10" y="2234">-------------------------------------------------------</tspan>
<tspan x="10" y="2250">| test-report - npmTest - browser - / - Mozilla/5.0 (X11; Linux x86_64) AppleWebKit/537.36 (KHTM\</tspan>
<tspan x="10" y="2266">L, like Gecko) Chrome/53.0.2785.143 Electron/1.4.16 Safari/537.36 - 2017-05-30T07:44:15.251Z</tspan>
<tspan x="10" y="2282">|      23 ms            0 failed        1 passed      |</tspan>
<tspan x="10" y="2298">-------------------------------------------------------</tspan>
<tspan x="10" y="2314"></tspan>
<tspan x="10" y="2330">created test-report file:///home/travis/build/npmtest/node-npmtest-sandbox2/tmp/build/test-repor\</tspan>
<tspan x="10" y="2346">t.html</tspan>
<tspan x="10" y="2362"></tspan>
<tspan x="10" y="2378"></tspan>
<tspan x="10" y="2394">npmTest - 0 failed tests</tspan>
<tspan x="10" y="2410"></tspan>
<tspan x="10" y="2426"></tspan>
<tspan x="10" y="2442">[MODE_BUILD=npmTest] - 2017-05-30T07:44:26.387Z - EXIT_CODE - 0</tspan>
</text>
</svg>
