<svg height="2446" width="720" xmlns="http://www.w3.org/2000/svg">
<rect height="2446" fill="#555" width="720"></rect>
<text fill="#7f7" font-family="Courier New" font-size="12" xml:space="preserve">
<tspan x="10" y="26"></tspan>
<tspan x="10" y="42">[MODE_BUILD=npmTest] - 2017-05-22T08:17:38.824Z - npm-testing /home/travis/build/npmtest/node-np\</tspan>
<tspan x="10" y="58">mtest-sandbox2</tspan>
<tspan x="10" y="74"></tspan>
<tspan x="10" y="90"></tspan>
<tspan x="10" y="106">covering $ /home/travis/.nvm/versions/node/v6.10.3/bin/node /home/travis/build/npmtest/node-npmt\</tspan>
<tspan x="10" y="122">est-sandbox2/test.js</tspan>
<tspan x="10" y="138"></tspan>
<tspan x="10" y="154">npmTest - merged test-report from file:///home/travis/build/npmtest/node-npmtest-sandbox2/tmp/bu\</tspan>
<tspan x="10" y="170">ild/test-report.json</tspan>
<tspan x="10" y="186">&gt; server listening on http-port 45958</tspan>
<tspan x="10" y="202">[node test-case 1 of 7 passed] - testCase_buildApidoc_default</tspan>
<tspan x="10" y="218">apidocCreate - readExample /home/travis/build/npmtest/node-npmtest-sandbox2/node_modules/sandbox\</tspan>
<tspan x="10" y="234">2/package.json</tspan>
<tspan x="10" y="250">apidocCreate - readExample /home/travis/build/npmtest/node-npmtest-sandbox2/node_modules/sandbox\</tspan>
<tspan x="10" y="266">2/lib.sandbox2.js</tspan>
<tspan x="10" y="282">apidocCreate - readExample /home/travis/build/npmtest/node-npmtest-sandbox2/node_modules/sandbox\</tspan>
<tspan x="10" y="298">2/LICENSE</tspan>
<tspan x="10" y="314">apidocCreate - readExample /home/travis/build/npmtest/node-npmtest-sandbox2/node_modules/sandbox\</tspan>
<tspan x="10" y="330">2/package.json</tspan>
<tspan x="10" y="346">apidocCreate - readExample /home/travis/build/npmtest/node-npmtest-sandbox2/node_modules/sandbox\</tspan>
<tspan x="10" y="362">2/README.md</tspan>
<tspan x="10" y="378">apidocCreate - readExample /home/travis/build/npmtest/node-npmtest-sandbox2/node_modules/sandbox\</tspan>
<tspan x="10" y="394">2/test.js</tspan>
<tspan x="10" y="410">apidocCreate - requiring /home/travis/build/npmtest/node-npmtest-sandbox2/node_modules/sandbox2 \</tspan>
<tspan x="10" y="426">...</tspan>
<tspan x="10" y="442">apidocCreate - ... required /home/travis/build/npmtest/node-npmtest-sandbox2/node_modules/sandbo\</tspan>
<tspan x="10" y="458">x2</tspan>
<tspan x="10" y="474">created customOrg file:///home/travis/build/npmtest/node-npmtest-sandbox2/README.md</tspan>
<tspan x="10" y="490"></tspan>
<tspan x="10" y="506">apidocCreate - readExample /home/travis/build/npmtest/node-npmtest-sandbox2/node_modules/sandbox\</tspan>
<tspan x="10" y="522">2/package.json</tspan>
<tspan x="10" y="538">apidocCreate - readExample /home/travis/build/npmtest/node-npmtest-sandbox2/node_modules/sandbox\</tspan>
<tspan x="10" y="554">2/lib.sandbox2.js</tspan>
<tspan x="10" y="570">apidocCreate - readExample /home/travis/build/npmtest/node-npmtest-sandbox2/node_modules/sandbox\</tspan>
<tspan x="10" y="586">2/LICENSE</tspan>
<tspan x="10" y="602">apidocCreate - readExample /home/travis/build/npmtest/node-npmtest-sandbox2/node_modules/sandbox\</tspan>
<tspan x="10" y="618">2/package.json</tspan>
<tspan x="10" y="634">apidocCreate - readExample /home/travis/build/npmtest/node-npmtest-sandbox2/node_modules/sandbox\</tspan>
<tspan x="10" y="650">2/README.md</tspan>
<tspan x="10" y="666">apidocCreate - readExample /home/travis/build/npmtest/node-npmtest-sandbox2/node_modules/sandbox\</tspan>
<tspan x="10" y="682">2/test.js</tspan>
<tspan x="10" y="698">apidocCreate - requiring /home/travis/build/npmtest/node-npmtest-sandbox2/node_modules/sandbox2 \</tspan>
<tspan x="10" y="714">...</tspan>
<tspan x="10" y="730">apidocCreate - ... required /home/travis/build/npmtest/node-npmtest-sandbox2/node_modules/sandbo\</tspan>
<tspan x="10" y="746">x2</tspan>
<tspan x="10" y="762">created customOrg file:///home/travis/build/npmtest/node-npmtest-sandbox2/README.md</tspan>
<tspan x="10" y="778"></tspan>
<tspan x="10" y="794">[node test-case 2 of 7 passed] - testCase_buildLib_default</tspan>
<tspan x="10" y="810">[node test-case 3 of 7 passed] - testCase_buildReadme_default</tspan>
<tspan x="10" y="826">[node test-case 4 of 7 passed] - testCase_buildTest_default</tspan>
<tspan x="10" y="842"></tspan>
<tspan x="10" y="858">browserTest - created electron entry-page /home/travis/build/npmtest/node-npmtest-sandbox2/tmp/e\</tspan>
<tspan x="10" y="874">lectron.15c2f3baf070.da565f7c87854.html</tspan>
<tspan x="10" y="890"></tspan>
<tspan x="10" y="906">[node test-case 5 of 7 passed] - testCase_buildCustomOrg_default</tspan>
<tspan x="10" y="922">Xlib:  extension "RANDR" missing on display ":99.0".</tspan>
<tspan x="10" y="938">&gt; server listening on http-port 58145</tspan>
<tspan x="10" y="954"></tspan>
<tspan x="10" y="970">npmTest - merged test-report from file:///home/travis/build/npmtest/node-npmtest-sandbox2/tmp/bu\</tspan>
<tspan x="10" y="986">ild/test-report.json</tspan>
<tspan x="10" y="1002">Xlib:  extension "RANDR" missing on display ":99.0".</tspan>
<tspan x="10" y="1018">[6583:0522/081740:ERROR:sandbox_linux.cc(343)] InitializeSandbox() called with multiple threads \</tspan>
<tspan x="10" y="1034">in process gpu-process. </tspan>
<tspan x="10" y="1050">[6553:0522/081740:WARNING:audio_manager.cc(314)] Multiple instances of AudioManager detected</tspan>
<tspan x="10" y="1066">[6553:0522/081740:WARNING:audio_manager.cc(275)] Multiple instances of AudioManager detected</tspan>
<tspan x="10" y="1082"></tspan>
<tspan x="10" y="1098">browserTest - opened url http://127.0.0.1:45958?modeTest=1</tspan>
<tspan x="10" y="1114"></tspan>
<tspan x="10" y="1130">[6553:0522/081741:INFO:CONSOLE(259)] "[browser test-case 1 of 1 passed] - testCase_browser_nullC\</tspan>
<tspan x="10" y="1146">ase", source: file:///home/travis/build/npmtest/node-npmtest-sandbox2/tmp/electron.15c2f3baf070.\</tspan>
<tspan x="10" y="1162">da565f7c87854.html (259)</tspan>
<tspan x="10" y="1178">[6553:0522/081742:INFO:CONSOLE(259)] "----------|-----------|-----------|-----------|-----------\</tspan>
<tspan x="10" y="1194">|</tspan>
<tspan x="10" y="1210">File      |   % Stmts |% Branches |   % Funcs |   % Lines |</tspan>
<tspan x="10" y="1226">----------|-----------|-----------|-----------|-----------|</tspan>
<tspan x="10" y="1242">----------|-----------|-----------|-----------|-----------|</tspan>
<tspan x="10" y="1258">All files |       100 |       100 |       100 |       100 |</tspan>
<tspan x="10" y="1274">----------|-----------|-----------|-----------|-----------|</tspan>
<tspan x="10" y="1290">", source: file:///home/travis/build/npmtest/node-npmtest-sandbox2/tmp/electron.15c2f3baf070.da5\</tspan>
<tspan x="10" y="1306">65f7c87854.html (259)</tspan>
<tspan x="10" y="1322">[6553:0522/081742:INFO:CONSOLE(259)] "created coverage file:///tmp/build/coverage.html/index.htm\</tspan>
<tspan x="10" y="1338">l", source: file:///home/travis/build/npmtest/node-npmtest-sandbox2/tmp/electron.15c2f3baf070.da\</tspan>
<tspan x="10" y="1354">565f7c87854.html (259)</tspan>
<tspan x="10" y="1370">[node test-case 6 of 7 passed] - testCase_buildApp_default</tspan>
<tspan x="10" y="1386"></tspan>
<tspan x="10" y="1402">browserTest - created screen-capture file:///home/travis/build/npmtest/node-npmtest-sandbox2/tmp\</tspan>
<tspan x="10" y="1418">/build/screen-capture.npmTest.browser.%2F.png</tspan>
<tspan x="10" y="1434"></tspan>
<tspan x="10" y="1450">browserTest - created screen-capture file:///home/travis/build/npmtest/node-npmtest-sandbox2/tmp\</tspan>
<tspan x="10" y="1466">/build/screen-capture.npmTest.browser.%2F.html</tspan>
<tspan x="10" y="1482"></tspan>
<tspan x="10" y="1498">browserTest - exit-code 0 - http://127.0.0.1:45958?modeTest=1</tspan>
<tspan x="10" y="1514"></tspan>
<tspan x="10" y="1530"></tspan>
<tspan x="10" y="1546">browserTest - merged coverage from /home/travis/build/npmtest/node-npmtest-sandbox2/tmp/coverage\</tspan>
<tspan x="10" y="1562">.npmTest.browser.%2F.json</tspan>
<tspan x="10" y="1578"></tspan>
<tspan x="10" y="1594"></tspan>
<tspan x="10" y="1610">browserTest - merged test-report from file:///home/travis/build/npmtest/node-npmtest-sandbox2/tm\</tspan>
<tspan x="10" y="1626">p/test-report.npmTest.browser.%2F.json</tspan>
<tspan x="10" y="1642"></tspan>
<tspan x="10" y="1658">[node test-case 7 of 7 passed] - testCase_webpage_default</tspan>
<tspan x="10" y="1674">------------------------------------------------|-----------|-----------|-----------|-----------\</tspan>
<tspan x="10" y="1690">|</tspan>
<tspan x="10" y="1706">File                                            |   % Stmts |% Branches |   % Funcs |   % Lines \</tspan>
<tspan x="10" y="1722">|</tspan>
<tspan x="10" y="1738">------------------------------------------------|-----------|-----------|-----------|-----------\</tspan>
<tspan x="10" y="1754">|</tspan>
<tspan x="10" y="1770">   node-npmtest-sandbox2/                       |       100 |       100 |       100 |       100 \</tspan>
<tspan x="10" y="1786">|</tspan>
<tspan x="10" y="1802">      example.js                                |       100 |       100 |       100 |       100 \</tspan>
<tspan x="10" y="1818">|</tspan>
<tspan x="10" y="1834">      lib.npmtest_sandbox2.js                   |       100 |       100 |       100 |       100 \</tspan>
<tspan x="10" y="1850">|</tspan>
<tspan x="10" y="1866">      test.js                                   |       100 |       100 |       100 |       100 \</tspan>
<tspan x="10" y="1882">|</tspan>
<tspan x="10" y="1898">   node-npmtest-sandbox2/node_modules/sandbox2/ |     93.75 |     64.29 |       100 |     93.75 \</tspan>
<tspan x="10" y="1914">|</tspan>
<tspan x="10" y="1930">      lib.sandbox2.js                           |     93.75 |     64.29 |       100 |     93.75 \</tspan>
<tspan x="10" y="1946">|</tspan>
<tspan x="10" y="1962">------------------------------------------------|-----------|-----------|-----------|-----------\</tspan>
<tspan x="10" y="1978">|</tspan>
<tspan x="10" y="1994">All files                                       |     99.42 |      96.5 |       100 |     99.42 \</tspan>
<tspan x="10" y="2010">|</tspan>
<tspan x="10" y="2026">------------------------------------------------|-----------|-----------|-----------|-----------\</tspan>
<tspan x="10" y="2042">|</tspan>
<tspan x="10" y="2058"></tspan>
<tspan x="10" y="2074">created coverage file:///home/travis/build/npmtest/node-npmtest-sandbox2/tmp/build/coverage.html\</tspan>
<tspan x="10" y="2090">/index.html</tspan>
<tspan x="10" y="2106"></tspan>
<tspan x="10" y="2122">npmTest - merged test-report from file:///home/travis/build/npmtest/node-npmtest-sandbox2/tmp/bu\</tspan>
<tspan x="10" y="2138">ild/test-report.json</tspan>
<tspan x="10" y="2154"></tspan>
<tspan x="10" y="2170">-------------------------------------------------------</tspan>
<tspan x="10" y="2186">| test-report - buildApp - node - linux v6.10.3 - 2017-05-22T08:17:28.790Z</tspan>
<tspan x="10" y="2202">|   20821 ms            0 failed        7 passed      |</tspan>
<tspan x="10" y="2218">-------------------------------------------------------</tspan>
<tspan x="10" y="2234">| test-report - npmTest - browser - / - Mozilla/5.0 (X11; Linux x86_64) AppleWebKit/537.36 (KHTM\</tspan>
<tspan x="10" y="2250">L, like Gecko) Chrome/53.0.2785.143 Electron/1.4.16 Safari/537.36 - 2017-05-22T08:17:41.475Z</tspan>
<tspan x="10" y="2266">|      21 ms            0 failed        1 passed      |</tspan>
<tspan x="10" y="2282">-------------------------------------------------------</tspan>
<tspan x="10" y="2298"></tspan>
<tspan x="10" y="2314">created test-report file:///home/travis/build/npmtest/node-npmtest-sandbox2/tmp/build/test-repor\</tspan>
<tspan x="10" y="2330">t.html</tspan>
<tspan x="10" y="2346"></tspan>
<tspan x="10" y="2362"></tspan>
<tspan x="10" y="2378">npmTest - 0 failed tests</tspan>
<tspan x="10" y="2394"></tspan>
<tspan x="10" y="2410"></tspan>
<tspan x="10" y="2426">[MODE_BUILD=npmTest] - 2017-05-22T08:17:52.661Z - EXIT_CODE - 0</tspan>
</text>
</svg>
