<svg height="638" width="720" xmlns="http://www.w3.org/2000/svg">
<rect height="638" fill="#555" width="720"></rect>
<text fill="#7f7" font-family="Courier New" font-size="12" xml:space="preserve">
<tspan x="10" y="26">2017-04-18 20:01:12 +0000</tspan>
<tspan x="10" y="42">[npm publishAfterCommit]</tspan>
<tspan x="10" y="58"></tspan>
<tspan x="10" y="74">2017-04-18 23:03:35 +0800</tspan>
<tspan x="10" y="90">[npm publishAfterCommitAfterBuild]</tspan>
<tspan x="10" y="106">2017-04-17 07:01:04 +0000</tspan>
<tspan x="10" y="122">[ci skip] npm published</tspan>
<tspan x="10" y="138"></tspan>
<tspan x="10" y="154">2017-04-15 05:56:19 +0800</tspan>
<tspan x="10" y="170">[npm publishAfterCommitAfterBuild]</tspan>
<tspan x="10" y="186">2017-04-14 21:09:22 +0000</tspan>
<tspan x="10" y="202">[ci skip] npm published</tspan>
<tspan x="10" y="218"></tspan>
<tspan x="10" y="234">2017-04-14 13:50:03 +0800</tspan>
<tspan x="10" y="250">[npm publishAfterCommitAfterBuild]</tspan>
<tspan x="10" y="266">2017-04-14 05:39:53 +0000</tspan>
<tspan x="10" y="282">[ci skip] npm published</tspan>
<tspan x="10" y="298"></tspan>
<tspan x="10" y="314">2017-04-14 13:36:05 +0800</tspan>
<tspan x="10" y="330">[npm publishAfterCommitAfterBuild]</tspan>
<tspan x="10" y="346">2017-04-13 17:06:42 +0000</tspan>
<tspan x="10" y="362">[ci skip] npm published</tspan>
<tspan x="10" y="378"></tspan>
<tspan x="10" y="394">2017-04-14 01:02:30 +0800</tspan>
<tspan x="10" y="410">[npm publishAfterCommitAfterBuild]</tspan>
<tspan x="10" y="426">2017-04-12 05:42:14 +0000</tspan>
<tspan x="10" y="442">[ci skip] npm published</tspan>
<tspan x="10" y="458"></tspan>
<tspan x="10" y="474">2017-04-12 13:36:39 +0800</tspan>
<tspan x="10" y="490">[npm publishAfterCommitAfterBuild]</tspan>
<tspan x="10" y="506">2017-04-10 19:17:58 +0000</tspan>
<tspan x="10" y="522">[ci skip] npm published</tspan>
<tspan x="10" y="538"></tspan>
<tspan x="10" y="554">2017-04-10 18:45:04 +0000</tspan>
<tspan x="10" y="570">[npm publishAfterCommitAfterBuild]</tspan>
<tspan x="10" y="586"></tspan>
<tspan x="10" y="602">2014-03-26 02:31:50 +0700</tspan>
<tspan x="10" y="618">add blank README.md</tspan>
</text>
</svg>
