<svg height="590" width="720" xmlns="http://www.w3.org/2000/svg">
<rect height="590" fill="#555" width="720"></rect>
<text fill="#7f7" font-family="Courier New" font-size="12" xml:space="preserve">
<tspan x="10" y="26">2017-04-18 23:03:35 +0800</tspan>
<tspan x="10" y="42">[npm publishAfterCommitAfterBuild]</tspan>
<tspan x="10" y="58">2017-04-17 07:01:04 +0000</tspan>
<tspan x="10" y="74">[ci skip] npm published</tspan>
<tspan x="10" y="90"></tspan>
<tspan x="10" y="106">2017-04-15 05:56:19 +0800</tspan>
<tspan x="10" y="122">[npm publishAfterCommitAfterBuild]</tspan>
<tspan x="10" y="138">2017-04-14 21:09:22 +0000</tspan>
<tspan x="10" y="154">[ci skip] npm published</tspan>
<tspan x="10" y="170"></tspan>
<tspan x="10" y="186">2017-04-14 13:50:03 +0800</tspan>
<tspan x="10" y="202">[npm publishAfterCommitAfterBuild]</tspan>
<tspan x="10" y="218">2017-04-14 05:39:53 +0000</tspan>
<tspan x="10" y="234">[ci skip] npm published</tspan>
<tspan x="10" y="250"></tspan>
<tspan x="10" y="266">2017-04-14 13:36:05 +0800</tspan>
<tspan x="10" y="282">[npm publishAfterCommitAfterBuild]</tspan>
<tspan x="10" y="298">2017-04-13 17:06:42 +0000</tspan>
<tspan x="10" y="314">[ci skip] npm published</tspan>
<tspan x="10" y="330"></tspan>
<tspan x="10" y="346">2017-04-14 01:02:30 +0800</tspan>
<tspan x="10" y="362">[npm publishAfterCommitAfterBuild]</tspan>
<tspan x="10" y="378">2017-04-12 05:42:14 +0000</tspan>
<tspan x="10" y="394">[ci skip] npm published</tspan>
<tspan x="10" y="410"></tspan>
<tspan x="10" y="426">2017-04-12 13:36:39 +0800</tspan>
<tspan x="10" y="442">[npm publishAfterCommitAfterBuild]</tspan>
<tspan x="10" y="458">2017-04-10 19:17:58 +0000</tspan>
<tspan x="10" y="474">[ci skip] npm published</tspan>
<tspan x="10" y="490"></tspan>
<tspan x="10" y="506">2017-04-10 18:45:04 +0000</tspan>
<tspan x="10" y="522">[npm publishAfterCommitAfterBuild]</tspan>
<tspan x="10" y="538"></tspan>
<tspan x="10" y="554">2014-03-26 02:31:50 +0700</tspan>
<tspan x="10" y="570">add blank README.md</tspan>
</text>
</svg>
